<?xml version="1.0" encoding="utf-8"?>
<!-- Generator: Adobe Illustrator 26.0.0, SVG Export Plug-In . SVG Version: 6.00 Build 0)  -->
<svg version="1.1" id="Layer_1" xmlns="http://www.w3.org/2000/svg" xmlns:xlink="http://www.w3.org/1999/xlink" x="0px" y="0px"
	 viewBox="0 0 186 83" style="enable-background:new 0 0 186 83;" xml:space="preserve">
<style type="text/css">
	.st0{fill:#C44D4D;}
	.st1{display:none;fill:#FFFFFF;}
	.st2{opacity:0.5;}
	.st3{opacity:0.7;}
	.st4{opacity:0.4;fill:none;stroke:#000000;stroke-miterlimit:10;}
</style>
<g>
<!-- C -->
	<path class="st0 letter-c letter-cae" d="M39.25,51.22c-2.81,0-5.11-0.36-6.92-1.08c-1.81-0.72-3.23-1.83-4.29-3.34c-1.05-1.51-1.78-3.43-2.18-5.76
		c-0.4-2.33-0.6-5.11-0.6-8.34c0-3.26,0.2-6.06,0.6-8.39c0.4-2.33,1.13-4.25,2.18-5.76c1.05-1.51,2.5-2.63,4.34-3.37
		s4.2-1.1,7.07-1.1c1.16,0,2.37,0.07,3.63,0.21c1.26,0.14,2.48,0.31,3.66,0.5c1.17,0.19,2.18,0.39,3.02,0.6l-0.21,5.79
		c-0.7-0.14-1.58-0.27-2.63-0.39c-1.05-0.12-2.12-0.22-3.21-0.29c-1.09-0.07-2.1-0.1-3.05-0.1c-1.68,0-3.05,0.21-4.1,0.63
		c-1.05,0.42-1.87,1.12-2.45,2.1c-0.58,0.98-0.97,2.25-1.18,3.81c-0.21,1.56-0.32,3.48-0.32,5.76c0,2.24,0.1,4.15,0.32,5.71
		c0.21,1.56,0.6,2.82,1.16,3.79c0.56,0.96,1.38,1.67,2.45,2.1c1.07,0.44,2.46,0.66,4.18,0.66c1.4,0,2.95-0.08,4.65-0.24
		c1.7-0.16,3.11-0.31,4.23-0.45l0.16,5.73c-0.84,0.18-1.84,0.36-3,0.55s-2.38,0.35-3.68,0.47C41.79,51.16,40.52,51.22,39.25,51.22z"
		/>
<!-- A -->
	<path class="st0 letter-a letter-cae" d="M57.19,50.65l9.15-35.92h12.68l9.1,35.92h-7.26l-2-7.26H66.29l-1.89,7.26H57.19z M67.44,37.55h10.36
		l-4.05-16.94h-2.21L67.44,37.55z"/>
<!-- E -->
	<path class="st0 letter-e letter-cae" d="M97.21,50.65V14.72h23.88v6.05h-16.62v8.73h13.46v5.94h-13.46v9.15h16.62v6.05H97.21z"/>
	<path d="M47.38,68.61v-7.96h2.9c0.59,0,1.09,0.09,1.48,0.28s0.71,0.45,0.94,0.79c0.23,0.34,0.39,0.74,0.49,1.22s0.14,1,0.14,1.58
		c0,0.58-0.05,1.13-0.14,1.62s-0.25,0.93-0.49,1.3c-0.23,0.37-0.54,0.66-0.93,0.87s-0.89,0.31-1.49,0.31H47.38z M48.49,67.65h1.78
		c0.4,0,0.73-0.08,0.98-0.25c0.25-0.17,0.44-0.4,0.58-0.69c0.14-0.29,0.23-0.62,0.29-1c0.05-0.37,0.08-0.77,0.08-1.2
		c0-0.42-0.03-0.8-0.08-1.15c-0.05-0.35-0.15-0.66-0.29-0.92s-0.33-0.46-0.58-0.61s-0.58-0.21-0.98-0.21h-1.78V67.65z"/>
	<path d="M63.1,68.72c-0.55,0-0.96-0.15-1.25-0.45c-0.29-0.3-0.43-0.74-0.43-1.33c0-0.39,0.07-0.71,0.21-0.95s0.34-0.42,0.62-0.55
		c0.27-0.12,0.61-0.2,1.02-0.22l1.67-0.16v-0.45c0-0.36-0.08-0.62-0.24-0.77c-0.16-0.15-0.4-0.23-0.73-0.23
		c-0.2,0-0.43,0.01-0.7,0.02s-0.54,0.04-0.8,0.06c-0.26,0.02-0.5,0.05-0.7,0.07l-0.05-0.79c0.19-0.05,0.42-0.09,0.69-0.13
		c0.27-0.04,0.54-0.07,0.84-0.1c0.29-0.03,0.56-0.05,0.81-0.05c0.45,0,0.83,0.07,1.12,0.2c0.29,0.13,0.51,0.33,0.65,0.61
		s0.21,0.63,0.21,1.07v2.84c0.02,0.15,0.08,0.27,0.19,0.34s0.25,0.12,0.42,0.14l-0.03,0.8c-0.17,0-0.33-0.01-0.48-0.02
		c-0.15-0.01-0.29-0.04-0.41-0.08c-0.12-0.03-0.23-0.08-0.33-0.13c-0.1-0.06-0.19-0.12-0.27-0.2c-0.14,0.06-0.32,0.13-0.54,0.2
		s-0.46,0.13-0.72,0.17C63.61,68.7,63.36,68.72,63.1,68.72z M63.32,67.87c0.19,0,0.39-0.02,0.59-0.06c0.2-0.04,0.4-0.08,0.58-0.13
		c0.19-0.05,0.33-0.09,0.45-0.13v-1.73l-1.54,0.15c-0.32,0.02-0.55,0.11-0.69,0.27c-0.14,0.16-0.21,0.38-0.21,0.68
		c0,0.3,0.07,0.54,0.2,0.7C62.85,67.78,63.05,67.87,63.32,67.87z"/>
	<path d="M76.66,68.73c-0.41,0-0.73-0.06-0.98-0.18c-0.24-0.12-0.42-0.34-0.52-0.64c-0.1-0.3-0.16-0.73-0.16-1.29v-2.89h-0.79v-0.91
		h0.79v-1.7h1.06v1.7h1.72v0.91h-1.72v2.59c0,0.38,0.02,0.67,0.05,0.88c0.03,0.21,0.11,0.36,0.21,0.44
		c0.11,0.08,0.28,0.13,0.51,0.13c0.08,0,0.17,0,0.29-0.01s0.23-0.01,0.36-0.02c0.12-0.01,0.23-0.02,0.32-0.03l0.06,0.88
		c-0.18,0.03-0.38,0.06-0.62,0.09C77.01,68.72,76.81,68.73,76.66,68.73z"/>
	<path d="M87.2,68.72c-0.55,0-0.96-0.15-1.25-0.45c-0.29-0.3-0.43-0.74-0.43-1.33c0-0.39,0.07-0.71,0.21-0.95s0.34-0.42,0.62-0.55
		c0.27-0.12,0.61-0.2,1.02-0.22l1.67-0.16v-0.45c0-0.36-0.08-0.62-0.24-0.77c-0.16-0.15-0.4-0.23-0.73-0.23
		c-0.2,0-0.43,0.01-0.7,0.02s-0.54,0.04-0.8,0.06c-0.26,0.02-0.5,0.05-0.7,0.07l-0.05-0.79c0.19-0.05,0.42-0.09,0.69-0.13
		c0.27-0.04,0.54-0.07,0.84-0.1c0.29-0.03,0.56-0.05,0.81-0.05c0.45,0,0.83,0.07,1.12,0.2c0.29,0.13,0.51,0.33,0.65,0.61
		s0.21,0.63,0.21,1.07v2.84c0.02,0.15,0.08,0.27,0.19,0.34s0.25,0.12,0.42,0.14l-0.03,0.8c-0.17,0-0.33-0.01-0.48-0.02
		c-0.15-0.01-0.29-0.04-0.41-0.08c-0.12-0.03-0.23-0.08-0.33-0.13c-0.1-0.06-0.19-0.12-0.27-0.2c-0.14,0.06-0.32,0.13-0.54,0.2
		s-0.46,0.13-0.72,0.17C87.71,68.7,87.46,68.72,87.2,68.72z M87.42,67.87c0.19,0,0.39-0.02,0.59-0.06c0.2-0.04,0.4-0.08,0.58-0.13
		c0.19-0.05,0.33-0.09,0.45-0.13v-1.73l-1.54,0.15c-0.32,0.02-0.55,0.11-0.69,0.27c-0.14,0.16-0.21,0.38-0.21,0.68
		c0,0.3,0.07,0.54,0.2,0.7C86.95,67.78,87.15,67.87,87.42,67.87z"/>
	<path d="M98.94,68.61v-7.96h2.98c0.52,0,0.96,0.07,1.32,0.21c0.36,0.14,0.63,0.36,0.82,0.65c0.19,0.3,0.28,0.68,0.28,1.16
		c0,0.34-0.04,0.62-0.12,0.85c-0.08,0.23-0.19,0.43-0.33,0.58c-0.14,0.16-0.32,0.29-0.54,0.4c0.23,0.08,0.44,0.2,0.62,0.34
		s0.33,0.34,0.43,0.58c0.1,0.25,0.16,0.56,0.16,0.93c0,0.42-0.06,0.78-0.18,1.07c-0.12,0.29-0.29,0.52-0.51,0.69
		c-0.22,0.17-0.49,0.29-0.8,0.37c-0.31,0.08-0.66,0.12-1.03,0.12H98.94z M100.05,64.12h1.88c0.47,0,0.81-0.11,1.01-0.33
		s0.31-0.55,0.31-1c0-0.42-0.11-0.73-0.34-0.93c-0.23-0.2-0.58-0.29-1.04-0.29h-1.81V64.12z M100.05,67.7h1.94
		c0.31,0,0.57-0.04,0.79-0.12c0.22-0.08,0.39-0.22,0.51-0.42s0.19-0.47,0.19-0.84c0-0.28-0.05-0.51-0.16-0.69
		c-0.1-0.17-0.24-0.3-0.39-0.39c-0.16-0.09-0.32-0.15-0.5-0.18c-0.17-0.03-0.34-0.05-0.49-0.05h-1.89V67.7z"/>
	<path d="M114.31,68.72c-0.55,0-0.96-0.15-1.25-0.45c-0.29-0.3-0.43-0.74-0.43-1.33c0-0.39,0.07-0.71,0.21-0.95s0.34-0.42,0.62-0.55
		c0.27-0.12,0.61-0.2,1.02-0.22l1.67-0.16v-0.45c0-0.36-0.08-0.62-0.24-0.77c-0.16-0.15-0.4-0.23-0.73-0.23
		c-0.2,0-0.43,0.01-0.7,0.02s-0.54,0.04-0.8,0.06c-0.26,0.02-0.5,0.05-0.7,0.07l-0.05-0.79c0.19-0.05,0.42-0.09,0.69-0.13
		c0.27-0.04,0.54-0.07,0.84-0.1c0.29-0.03,0.56-0.05,0.81-0.05c0.45,0,0.83,0.07,1.12,0.2c0.29,0.13,0.51,0.33,0.65,0.61
		s0.21,0.63,0.21,1.07v2.84c0.02,0.15,0.08,0.27,0.19,0.34s0.25,0.12,0.42,0.14l-0.03,0.8c-0.17,0-0.33-0.01-0.48-0.02
		c-0.15-0.01-0.29-0.04-0.41-0.08c-0.12-0.03-0.23-0.08-0.33-0.13c-0.1-0.06-0.19-0.12-0.27-0.2c-0.14,0.06-0.32,0.13-0.54,0.2
		s-0.46,0.13-0.72,0.17C114.82,68.7,114.56,68.72,114.31,68.72z M114.53,67.87c0.19,0,0.39-0.02,0.59-0.06
		c0.2-0.04,0.4-0.08,0.58-0.13c0.19-0.05,0.33-0.09,0.45-0.13v-1.73l-1.54,0.15c-0.32,0.02-0.55,0.11-0.69,0.27
		c-0.14,0.16-0.21,0.38-0.21,0.68c0,0.3,0.07,0.54,0.2,0.7C114.06,67.78,114.26,67.87,114.53,67.87z"/>
	<path d="M127.81,68.72c-0.2,0-0.43-0.01-0.69-0.03c-0.26-0.02-0.51-0.05-0.76-0.09c-0.25-0.03-0.47-0.07-0.65-0.11l0.05-0.87
		c0.19,0.02,0.41,0.05,0.66,0.08c0.25,0.03,0.49,0.06,0.72,0.08c0.23,0.02,0.42,0.03,0.56,0.03c0.29,0,0.54-0.03,0.73-0.08
		c0.19-0.05,0.34-0.14,0.44-0.27c0.1-0.13,0.15-0.3,0.15-0.53c0-0.18-0.04-0.31-0.12-0.41c-0.08-0.1-0.22-0.18-0.43-0.24
		s-0.51-0.13-0.91-0.19c-0.43-0.07-0.79-0.16-1.07-0.26c-0.29-0.1-0.5-0.26-0.64-0.48c-0.14-0.22-0.21-0.52-0.21-0.9
		c0-0.45,0.1-0.79,0.31-1.04s0.47-0.43,0.8-0.54s0.67-0.16,1.03-0.16c0.23,0,0.48,0.01,0.74,0.04s0.52,0.05,0.77,0.09
		c0.25,0.04,0.46,0.07,0.63,0.1l-0.04,0.88c-0.18-0.03-0.4-0.06-0.65-0.09s-0.49-0.05-0.74-0.06c-0.25-0.02-0.46-0.02-0.65-0.02
		c-0.22,0-0.41,0.02-0.58,0.06c-0.17,0.04-0.31,0.12-0.4,0.23c-0.1,0.11-0.14,0.27-0.14,0.48c0,0.15,0.03,0.28,0.1,0.37
		c0.07,0.09,0.21,0.17,0.42,0.24s0.5,0.13,0.89,0.19c0.48,0.08,0.86,0.17,1.14,0.29c0.28,0.12,0.49,0.28,0.62,0.5s0.2,0.51,0.2,0.89
		c0,0.69-0.2,1.16-0.61,1.43C129.08,68.59,128.52,68.72,127.81,68.72z"/>
	<path d="M140.53,68.72c-0.59,0-1.06-0.11-1.4-0.33c-0.34-0.22-0.59-0.55-0.75-0.99c-0.15-0.44-0.23-0.99-0.23-1.65
		c0-0.72,0.1-1.31,0.31-1.75s0.49-0.77,0.86-0.98s0.81-0.31,1.33-0.31c0.79,0,1.39,0.21,1.79,0.64c0.4,0.43,0.61,1.11,0.61,2.06
		l-0.06,0.73h-3.74c0.01,0.55,0.11,0.97,0.31,1.25c0.2,0.28,0.56,0.42,1.09,0.42c0.22,0,0.47-0.01,0.73-0.02
		c0.26-0.01,0.53-0.02,0.79-0.04s0.49-0.03,0.67-0.05l0.02,0.81c-0.19,0.03-0.42,0.06-0.69,0.1c-0.27,0.03-0.55,0.06-0.84,0.08
		C141.04,68.71,140.78,68.72,140.53,68.72z M139.25,65.34h2.72c0-0.65-0.11-1.11-0.32-1.37s-0.55-0.39-1.01-0.39
		c-0.45,0-0.8,0.13-1.04,0.4C139.37,64.25,139.25,64.7,139.25,65.34z"/>
</g>
<rect x="-7" y="-62" class="st1" width="205" height="207"/>
<g class="st2">
	<g>
		<g>
			<path class="st0" d="M162.6,15.29c0.22,0,0.4,0.18,0.4,0.4v8.64c0,0.22-0.18,0.4-0.4,0.4h-31.95c-0.22,0-0.4-0.18-0.4-0.4v-8.64
				c0-0.22,0.18-0.4,0.4-0.4H162.6 M162.6,14.29h-31.95c-0.77,0-1.4,0.63-1.4,1.4v8.64c0,0.77,0.63,1.4,1.4,1.4h31.95
				c0.77,0,1.4-0.63,1.4-1.4v-8.64C164,14.92,163.37,14.29,162.6,14.29L162.6,14.29z"/>
		</g>
	</g>
	<g>
		<path class="st0" d="M134.08,18.65c0.79,0,1.43,0.64,1.43,1.43s-0.64,1.43-1.43,1.43s-1.43-0.64-1.43-1.43
			S133.29,18.65,134.08,18.65 M134.08,18.15c-1.07,0-1.93,0.86-1.93,1.93c0,1.07,0.86,1.93,1.93,1.93s1.93-0.86,1.93-1.93
			C136.01,19.02,135.15,18.15,134.08,18.15L134.08,18.15z"/>
	</g>
</g>
<g class="st3">
	<g>
		<g>
			<path class="st0" d="M162.6,27.84c0.22,0,0.4,0.18,0.4,0.4v8.97c0,0.22-0.18,0.4-0.4,0.4h-31.95c-0.22,0-0.4-0.18-0.4-0.4v-8.97
				c0-0.22,0.18-0.4,0.4-0.4H162.6 M162.6,26.84h-31.95c-0.77,0-1.4,0.63-1.4,1.4v8.97c0,0.77,0.63,1.4,1.4,1.4h31.95
				c0.77,0,1.4-0.63,1.4-1.4v-8.97C164,27.47,163.37,26.84,162.6,26.84L162.6,26.84z"/>
		</g>
	</g>
	<g>
		<path class="st0" d="M134.08,31.31c0.79,0,1.43,0.67,1.43,1.49c0,0.82-0.64,1.49-1.43,1.49s-1.43-0.67-1.43-1.49
			C132.65,31.98,133.29,31.31,134.08,31.31 M134.08,30.81c-1.07,0-1.93,0.89-1.93,1.99c0,1.1,0.86,1.99,1.93,1.99
			s1.93-0.89,1.93-1.99C136.01,31.7,135.15,30.81,134.08,30.81L134.08,30.81z"/>
	</g>
</g>
<g>
	<g>
		<g>
			<path class="st0" d="M162.6,40.39c0.22,0,0.4,0.18,0.4,0.4v8.64c0,0.22-0.18,0.4-0.4,0.4h-31.95c-0.22,0-0.4-0.18-0.4-0.4v-8.64
				c0-0.22,0.18-0.4,0.4-0.4H162.6 M162.6,39.39h-31.95c-0.77,0-1.4,0.63-1.4,1.4v8.64c0,0.77,0.63,1.4,1.4,1.4h31.95
				c0.77,0,1.4-0.63,1.4-1.4v-8.64C164,40.01,163.37,39.39,162.6,39.39L162.6,39.39z"/>
		</g>
	</g>
	<g>
		<path class="st0" d="M134.08,43.75c0.79,0,1.43,0.64,1.43,1.43s-0.64,1.43-1.43,1.43s-1.43-0.64-1.43-1.43
			S133.29,43.75,134.08,43.75 M134.08,43.25c-1.07,0-1.93,0.86-1.93,1.93c0,1.07,0.86,1.93,1.93,1.93s1.93-0.86,1.93-1.93
			C136.01,44.11,135.15,43.25,134.08,43.25L134.08,43.25z"/>
	</g>
</g>
<line class="st4" x1="42.5" y1="65.5" x2="25.5" y2="65.5"/>
<line class="st4" x1="164" y1="65.5" x2="147" y2="65.5"/>
</svg>
